<svg width="197" height="112" viewBox="0 0 197 112" fill="none" xmlns="http://www.w3.org/2000/svg">
<g filter="url(#filter0_d)">
<path fill-rule="evenodd" clip-rule="evenodd" d="M11 0C7.68629 0 5 2.68629 5 6V94C5 97.3137 7.68629 100 11 100H174C177.314 100 180 97.3137 180 94V6C180 2.68629 177.314 0 174 0H11ZM121.241 18C130.452 18.097 138.308 20.6667 144.81 25.7091C152.937 32.303 157 41.0303 157 51.8909C157 60.1333 154.359 67.0182 149.076 72.5455C142.846 78.8485 134.854 82 125.102 82C122.257 82 119.48 81.7091 116.771 81.1273C105.8 78.897 97.8085 72.8848 92.7968 63.0909C91.7132 64.3515 90.6296 65.5152 89.546 66.5818C81.0127 75.6 71.6667 80.1091 61.5079 80.1091C53.381 80.1091 46.473 78.1212 40.7841 74.1455C32.928 68.6182 29 60.9091 29 51.0182C29 45.8788 30.0836 41.2727 32.2508 37.2C36.9915 28.2788 45.728 23.8182 58.4603 23.8182C59.9503 23.8182 61.5079 23.9152 63.1333 24.1091C72.8857 25.4667 80.945 30.0727 87.3111 37.9273C89.072 35.7939 90.6974 33.8545 92.1873 32.1091C100.721 22.703 110.405 18 121.241 18ZM36.1111 54.5091C38.6847 60.9091 44.3058 64.1091 52.9746 64.1091C58.1217 64.1091 62.9302 62.6545 67.4 59.7455C71.5989 57.0303 77.1524 51.1636 84.0603 42.1455C82.9767 40.7879 81.7577 39.4303 80.4032 38.0727C74.037 32.0606 66.655 29.0545 58.2571 29.0545C53.5164 29.0545 49.3175 29.9273 45.6603 31.6727C38.6169 35.0667 35.0952 40.5939 35.0952 48.2545C35.0952 50.3879 35.4339 52.4727 36.1111 54.5091ZM101.737 67.1636C107.29 73.5636 114.875 76.7636 124.492 76.7636C130.994 76.7636 136.615 75.0667 141.356 71.6727C147.722 67.1152 150.905 61.297 150.905 54.2182C150.905 50.8242 150.228 47.6727 148.873 44.7636C145.487 37.7818 139.188 34.2909 129.978 34.2909C123.612 34.3879 117.584 36.7151 111.895 41.2727C108.915 43.697 103.836 49.3697 96.6571 58.2909C97.8762 61.5879 99.5693 64.5455 101.737 67.1636Z" fill="white"/>
</g>
<defs>
<filter id="filter0_d" x="1" y="0" width="183" height="108" filterUnits="userSpaceOnUse" color-interpolation-filters="sRGB">
<feFlood flood-opacity="0" result="BackgroundImageFix"/>
<feColorMatrix in="SourceAlpha" type="matrix" values="0 0 0 0 0 0 0 0 0 0 0 0 0 0 0 0 0 0 127 0"/>
<feOffset dy="4"/>
<feGaussianBlur stdDeviation="2"/>
<feColorMatrix type="matrix" values="0 0 0 0 0 0 0 0 0 0 0 0 0 0 0 0 0 0 0.25 0"/>
<feBlend mode="normal" in2="BackgroundImageFix" result="effect1_dropShadow"/>
<feBlend mode="normal" in="SourceGraphic" in2="effect1_dropShadow" result="shape"/>
</filter>
</defs>
</svg>
