<?xml version="1.0" standalone="no"?>
<!DOCTYPE svg PUBLIC "-//W3C//DTD SVG 20010904//EN"
 "http://www.w3.org/TR/2001/REC-SVG-20010904/DTD/svg10.dtd">
<svg version="1.0" xmlns="http://www.w3.org/2000/svg"
 width="260.000000pt" height="260.000000pt" viewBox="0 0 260.000000 260.000000"
 preserveAspectRatio="xMidYMid meet">
<metadata>
Created by potrace 1.11, written by Peter Selinger 2001-2013
</metadata>
<g transform="translate(0.000000,260.000000) scale(0.100000,-0.100000)"
fill="#000000" stroke="none">
<path d="M190 1993 c-8 -3 -32 -16 -52 -30 -69 -47 -68 -36 -68 -674 1 -569 2
-597 34 -620 5 -4 5 -12 2 -18 -4 -6 -4 -11 1 -10 14 3 114 -46 108 -53 -4 -3
-1 -9 5 -13 6 -3 9 -1 8 6 -2 9 13 13 52 13 40 1 54 -3 52 -12 -1 -8 2 -11 8
-7 6 3 8 11 5 16 -4 5 20 9 55 9 35 0 59 -4 55 -9 -3 -5 -1 -13 5 -16 6 -4 9
-1 8 7 -4 17 71 20 91 4 11 -8 13 -8 8 0 -4 7 11 11 44 13 30 1 48 -2 45 -8
-4 -5 -2 -13 4 -16 6 -4 9 -1 8 6 -2 7 9 14 25 15 19 2 25 -1 20 -9 -5 -9 -3
-9 8 -1 21 15 95 12 91 -4 -1 -8 2 -11 8 -7 6 3 8 11 5 16 -4 5 20 9 55 9 35
0 59 -4 55 -9 -3 -5 -1 -13 5 -16 6 -4 9 -1 8 7 -4 17 71 20 91 4 11 -8 13 -8
8 0 -4 7 11 11 44 13 30 1 48 -2 45 -8 -4 -5 -2 -13 4 -16 6 -4 9 -1 8 6 -2 7
9 14 25 15 18 2 25 -1 21 -8 -5 -7 -2 -8 7 -2 8 4 51 10 97 11 65 3 82 0 76
-9 -6 -10 -4 -10 7 -2 21 16 142 17 133 1 -6 -9 -5 -9 7 0 17 14 183 17 174 3
-3 -5 -1 -12 5 -15 6 -4 9 -1 8 6 -2 10 16 14 65 16 52 2 66 0 61 -10 -6 -8
-3 -8 8 1 20 16 136 15 157 -2 11 -8 13 -8 8 0 -4 7 11 11 44 13 30 1 48 -2
45 -8 -4 -5 -2 -13 4 -16 6 -4 9 -1 8 6 -2 7 9 14 25 15 19 2 25 -1 20 -9 -5
-9 -3 -9 8 -1 21 15 95 12 91 -4 -1 -8 2 -11 8 -7 6 3 8 11 4 16 -3 6 18 9 55
8 33 -1 58 -5 56 -10 -3 -4 0 -11 6 -15 8 -4 9 -3 5 4 -4 7 11 20 39 33 26 12
49 28 52 35 3 8 9 12 13 9 4 -3 15 13 24 35 14 35 16 110 16 609 l0 568 -23
43 c-16 30 -37 51 -67 67 l-43 23 -1096 -1 c-603 0 -1103 -3 -1111 -6z m671
-255 c7 -10 9 -10 9 0 0 8 15 12 50 11 28 -1 50 -6 50 -10 0 -4 8 -8 18 -8 44
1 166 -57 156 -73 -5 -7 -2 -8 6 -3 9 5 22 -2 38 -21 13 -16 21 -22 16 -14 -7
13 -5 13 9 1 9 -7 14 -18 10 -24 -3 -5 -1 -7 4 -4 6 4 18 -2 28 -13 18 -20 17
-22 -20 -93 -21 -39 -44 -82 -50 -93 -11 -21 -13 -20 -66 35 -74 75 -144 113
-219 116 -134 6 -245 -99 -241 -228 2 -69 5 -101 11 -107 3 -3 22 -26 43 -52
21 -27 43 -48 50 -48 6 0 22 -10 35 -22 14 -13 22 -17 18 -10 -4 7 -1 12 8 12
9 0 16 -4 16 -8 0 -5 30 -4 68 0 37 5 77 10 89 11 12 1 20 4 17 6 -2 2 16 16
39 31 23 14 48 34 56 43 7 9 17 15 21 12 4 -3 7 3 6 13 0 10 5 16 14 14 8 -2
12 0 8 3 -10 10 11 47 22 40 6 -3 7 1 4 9 -3 9 -1 16 5 16 6 0 11 4 11 9 0 6
19 49 42 98 23 48 41 91 40 96 -1 4 2 7 6 7 5 0 14 12 21 26 8 18 17 24 28 20
12 -5 13 -3 5 7 -11 12 -2 23 87 97 14 11 31 18 38 15 9 -3 11 0 7 7 -5 8 -2
9 9 5 10 -4 16 -2 14 6 -1 7 6 11 15 11 10 -1 15 3 11 9 -4 6 0 8 10 4 9 -3
17 -2 19 3 2 5 14 11 28 14 14 2 25 5 25 7 0 1 9 3 20 4 11 1 35 5 53 8 28 5
33 3 28 -11 -5 -14 -3 -13 8 2 13 16 23 17 78 12 79 -8 138 -24 138 -36 0 -5
6 -7 13 -4 20 7 127 -68 116 -82 -7 -8 -6 -15 2 -20 8 -4 9 -3 5 4 -10 17 9
15 23 -1 6 -8 7 -17 3 -21 -4 -4 0 -6 8 -4 9 2 14 -4 14 -14 -1 -10 3 -16 10
-15 6 1 10 -6 10 -15 -1 -10 2 -16 6 -13 7 4 20 -16 24 -35 1 -3 5 -11 9 -17
17 -27 35 -145 31 -200 -16 -202 -127 -338 -317 -389 -64 -17 -186 -19 -252
-4 -76 17 -184 74 -242 129 l-51 48 21 47 c12 25 29 46 37 46 10 0 11 3 3 8
-8 5 -5 20 11 56 19 42 24 46 35 32 8 -9 10 -16 7 -16 -9 0 76 -81 100 -97 11
-6 18 -16 16 -23 -1 -6 2 -9 7 -6 17 11 61 -12 55 -29 -3 -8 -1 -15 6 -15 6 0
9 4 5 9 -3 5 -1 12 5 16 5 3 10 3 10 -2 0 -4 17 -8 38 -8 20 0 42 -3 49 -8 6
-4 14 -3 18 3 3 6 11 8 16 5 5 -4 9 -1 9 5 0 6 4 9 9 5 5 -3 13 0 17 6 4 8 9
7 15 -2 7 -11 9 -10 9 3 0 12 5 15 15 11 9 -3 15 -1 13 5 -2 5 9 21 23 34 43
40 64 95 63 168 -1 147 -103 239 -252 228 -140 -11 -247 -115 -348 -342 -46
-104 -113 -184 -198 -235 -89 -53 -150 -71 -266 -77 -182 -9 -329 64 -414 205
-65 107 -82 227 -51 357 14 63 76 179 88 167 4 -3 7 1 7 10 0 10 7 17 16 17 9
0 12 5 8 12 -5 8 -2 9 10 5 10 -4 15 -3 11 3 -11 18 92 71 165 85 12 2 24 6
26 8 11 10 98 7 105 -5z"/>
<path d="M890 1726 c0 -2 7 -7 16 -10 8 -3 12 -2 9 4 -6 10 -25 14 -25 6z"/>
<path d="M1575 580 c3 -5 8 -10 11 -10 2 0 4 5 4 10 0 6 -5 10 -11 10 -5 0 -7
-4 -4 -10z"/>
<path d="M1895 580 c3 -5 8 -10 11 -10 2 0 4 5 4 10 0 6 -5 10 -11 10 -5 0 -7
-4 -4 -10z"/>
</g>
</svg>
